<svg width="125" height="14" viewBox="0 0 125 14" fill="none" xmlns="http://www.w3.org/2000/svg">
<path d="M124.785 2.64363C124.411 2.45713 122.123 3.31304 117.887 5.21025C116.463 5.76865 114.852 6.32594 113.014 6.88434C109.416 7.96338 105.966 8.78155 102.706 9.26557C99.4822 9.74959 97.0081 9.97272 95.3583 9.89834C95.4332 9.48871 95.733 8.67054 96.2956 7.48048C96.4085 7.29397 96.4835 7.0342 96.5953 6.69894C96.7083 6.40143 96.6703 6.02953 96.5204 5.61989C96.4835 5.47114 96.3325 5.28463 96.1826 5.0615C95.9947 4.87499 95.6949 4.6896 95.3202 4.54084C94.5328 4.31771 93.5205 4.35434 92.2835 4.65297C90.0722 5.248 87.56 6.21604 84.7861 7.48048C83.662 8.00113 82.5367 8.48515 81.4495 8.93142C81.6744 8.59616 81.9372 8.29864 82.162 8.00113C83.3991 6.51244 84.3364 5.06261 84.974 3.68604C85.5735 2.2351 85.4236 1.23043 84.5243 0.672032C83.4752 0.0392562 82.275 -0.146136 80.8511 0.113635C78.3401 0.48553 75.2653 1.45356 71.5921 2.97889C67.9189 4.46757 64.4694 6.02953 61.1709 7.55485C61.021 7.62923 60.8711 7.70361 60.7212 7.77799C59.9338 8.11325 59.2213 8.4474 58.5469 8.74492C59.0345 7.92675 59.6341 7.07084 60.3465 6.25267C61.059 5.39676 61.7704 4.76398 62.4829 4.35545C62.7458 4.2067 63.0075 4.09568 63.2703 4.09568C63.6831 4.05905 64.0197 3.90918 64.2826 3.61166C64.5443 3.35078 64.6573 3.01663 64.6573 2.607C64.6193 2.19736 64.4694 1.8632 64.1696 1.60232C63.9079 1.34255 63.5701 1.23043 63.1574 1.26706C62.3699 1.34144 61.6955 1.52794 61.1709 1.86209C60.6396 2.15517 60.0971 2.54372 59.5457 3.02663C58.6934 3.353 57.5368 3.74821 56.0358 4.28107C53.7496 5.09924 50.4499 5.91852 46.1772 6.77332C41.8665 7.62923 38.0054 7.889 34.557 7.55485C31.1086 7.21959 28.2508 6.48469 25.5283 5.79307C24.0161 5.40897 22.4077 4.90275 20.9368 4.06793C19.0667 3.00553 19.3564 2.19402 18.4493 1.55681C17.918 1.1838 17.0176 0.91071 15.4908 1.88985C15.0165 2.19402 14.417 2.56592 13.9562 2.83124C12.6274 3.59723 11.0727 4.50976 9.29088 5.54552C7.15451 6.8477 5.20495 8.00113 3.4802 9.0058C3.66811 8.14989 3.8549 7.4061 3.96787 6.77332C4.08084 6.14055 4.19269 5.61989 4.26763 5.21025C4.3806 4.80061 4.79333 2.6847 4.86827 2.42382C4.90518 2.20068 4.94321 2.01418 4.94321 1.86542C4.98124 1.7533 4.98124 1.64229 4.98124 1.60455V1.49242C4.98124 1.08278 4.86827 0.748631 4.56851 0.450005C4.30678 0.15249 3.96899 0.0037332 3.55626 0.0037332C3.18155 0.0037332 2.84376 0.152491 2.544 0.413372C2.28227 0.674253 2.13127 1.0084 2.13127 1.3803C2.09436 1.75219 1.53063 4.53862 1.15593 6.2127C0.818135 7.85015 0.443433 9.67299 0.0318196 11.6079C-0.0811503 12.203 0.10676 12.687 0.594432 13.0589C0.857283 13.2454 1.11901 13.3198 1.41878 13.3198C1.68163 13.3198 1.90645 13.2454 2.16818 13.1333C2.28115 13.0589 3.14241 12.5005 4.79221 11.5336C6.44202 10.5666 8.31553 9.41322 10.453 8.18541C12.2292 7.13412 13.7985 6.21048 15.1608 5.41563C15.3722 5.2924 16.4035 4.56082 17.3431 5.34791C17.6037 5.56661 18.494 6.17163 18.9492 6.40476C21.2757 7.59704 23.5777 8.22093 24.8382 8.58839C26.9153 9.19563 30.6959 10.0438 34.3691 10.379C38.0054 10.7509 42.3161 10.3047 47.2644 9.07685C50.6848 8.19651 54.0258 7.0231 57.2863 5.51332C56.5772 6.46915 55.9911 7.43607 55.5112 8.44518C54.8737 9.74737 54.7238 10.7887 55.0235 11.5336C55.1734 11.9055 55.4732 12.203 55.8859 12.3895C56.3356 12.576 56.8232 12.5382 57.4228 12.3151C58.6218 11.8311 60.2716 11.0873 62.3711 10.1193C65.4078 8.70606 68.7432 7.21737 72.3426 5.72869C75.9409 4.20336 78.9027 3.27307 81.1889 2.93892C81.6386 2.86454 82.0133 2.86454 82.2381 2.86454C82.0133 3.34856 81.6755 3.86921 81.2258 4.46424C80.8131 5.05928 80.3635 5.69205 79.8769 6.28708C79.0145 7.36613 78.3401 8.29642 77.9273 9.04021C77.4777 9.784 77.3278 10.4545 77.5146 11.0862C77.7025 11.6446 78.0392 12.0165 78.6018 12.2396C79.1644 12.4628 79.9507 12.3884 81.0379 12.0531C82.1251 11.7179 83.7369 11.0484 85.9113 10.0815C87.1484 9.52312 88.4224 9.00247 89.6594 8.51845C90.8965 7.9978 91.9837 7.6259 92.9579 7.40277C93.0329 7.36502 93.1078 7.32839 93.2208 7.32839C92.6962 8.59394 92.4714 9.56087 92.4714 10.1936C92.5083 10.8631 92.6213 11.3093 92.8092 11.6068C93.1839 12.2396 93.7834 12.6115 94.6089 12.6859C94.9466 12.7225 95.3963 12.7603 95.8459 12.7603C97.8324 12.7603 100.531 12.4628 103.943 11.9044C107.391 11.3837 110.916 10.4534 114.514 9.15122C118.112 7.88567 120.811 6.54685 122.536 5.20803C124.261 3.83147 125.01 2.97556 124.785 2.64141V2.64363Z" fill="white"/>
</svg>
